<svg xmlns="http://www.w3.org/2000/svg" width="62.114" height="62.114" viewBox="0 0 62.114 62.114">
  <defs>
    <style>
      .cls-1, .cls-4 {
        fill: none;
      }

      .cls-1 {
        stroke: #fff;
        stroke-width: 0.5px;
      }

      .cls-2 {
        fill: #fff;
      }

      .cls-3 {
        stroke: none;
      }
    </style>
  </defs>
  <g id="Group_9167" data-name="Group 9167" transform="translate(-562.106 -15488.806)">
    <g id="Group_8871" data-name="Group 8871" transform="translate(562.106 15488.806)">
      <g id="Group_793" data-name="Group 793" transform="translate(0 0)">
        <g id="Ellipse_8" data-name="Ellipse 8" class="cls-1" transform="translate(0 0)">
          <circle class="cls-3" cx="31.057" cy="31.057" r="31.057"/>
          <circle class="cls-4" cx="31.057" cy="31.057" r="30.807"/>
        </g>
      </g>
      <g id="Group_8868" data-name="Group 8868" transform="translate(14.692 11.078)">
        <path id="Path_1164" data-name="Path 1164" class="cls-2" d="M15.88,134.931c-1.62-.058-3.1-.1-4.58-.167q-1.988-.092-3.973-.238c-.847-.061-1.7-.12-2.535-.261a26.023,26.023,0,0,1-2.665-.615,1.515,1.515,0,0,1-.884-.764,7.057,7.057,0,0,1-.681-2.042,23.236,23.236,0,0,1-.482-4.371c-.016-.94-.087-1.88-.079-2.82A37.034,37.034,0,0,1,.255,119.1a17.269,17.269,0,0,1,.657-3.134,2.212,2.212,0,0,1,1.81-1.59c.974-.182,1.943-.4,2.924-.528.866-.115,1.745-.134,2.619-.19,1.17-.074,2.339-.164,3.51-.208,1.48-.055,2.962-.1,4.443-.1q2.26,0,4.52.1c1.6.069,3.187.209,4.782.285a24.466,24.466,0,0,1,4.12.626,2.146,2.146,0,0,1,1.6,1.361,13.271,13.271,0,0,1,.72,3.077,27.778,27.778,0,0,1,.308,3.54,40.465,40.465,0,0,1-.084,4.79c-.055.6-.088,1.21-.178,1.807-.131.878-.27,1.757-.473,2.62a6.1,6.1,0,0,1-.56,1.392,1.489,1.489,0,0,1-.955.732,19.2,19.2,0,0,1-3.06.629c-1.728.2-3.46.351-5.2.426-2.007.086-4.016.131-5.887.189m3.331-13.384a2.708,2.708,0,0,1-.083-.441c0-1.043,0-2.087,0-3.13,0-.352-.107-.465-.456-.458-.244.005-.489.014-.733.014-.734,0-.738.008-.736.726q.013,4.289.019,8.579c0,1.056,0,2.113,0,3.169,0,.354.083.433.432.436.309,0,.618,0,.927-.009.442-.01.442-.013.6-.427.008-.02.038-.032.082-.066.131.083.269.173.41.26a2.081,2.081,0,0,0,1.847.243,1.467,1.467,0,0,0,.833-.7,2.891,2.891,0,0,0,.3-1.457c0-1.687.008-3.375-.008-5.062a4.116,4.116,0,0,0-.146-1.105,1.583,1.583,0,0,0-.761-1.066,2.019,2.019,0,0,0-2.24.279c-.079.059-.159.116-.3.217m4.435,4.07h0c0,.773-.027,1.547.008,2.319a2.908,2.908,0,0,0,.7,1.957,2.414,2.414,0,0,0,1.508.78,6.885,6.885,0,0,0,1,0,2.378,2.378,0,0,0,1.026-.313,2.166,2.166,0,0,0,1.046-1.184,4.6,4.6,0,0,0,.251-1.593c.006-.217-.069-.3-.308-.308-.424-.015-.85-.015-1.273.006-.263.013-.325.111-.34.37-.014.243-.029.488-.067.729a.672.672,0,0,1-.764.645c-.473,0-.76-.214-.792-.667-.051-.731-.053-1.465-.072-2.2a.229.229,0,0,1,.236-.251c.077-.007.154-.014.231-.014l2.28,0c.167,0,.335.007.5,0,.29-.018.349-.084.357-.385,0-.141,0-.283,0-.425-.006-.721.039-1.448-.033-2.163a2.218,2.218,0,0,0-1.483-2.032,3.128,3.128,0,0,0-2.232-.017,2.482,2.482,0,0,0-1.711,1.971,5.647,5.647,0,0,0-.073.844c-.01.644,0,1.289,0,1.933m-9.82,3.958c.059.081.1.109.1.142.015.1.019.2.025.307.022.343.08.407.414.415.309.008.618.007.928,0,.458,0,.508-.053.508-.514,0-1.546-.006-3.092-.005-4.639,0-1.314.006-2.629.01-3.943,0-.286-.05-.36-.319-.368-.412-.012-.825-.014-1.237,0-.249.007-.311.084-.312.339,0,.734,0,1.469,0,2.2.005,1.43.015,2.861.011,4.291a.719.719,0,0,1-.132.465,3.113,3.113,0,0,1-.731.558.5.5,0,0,1-.751-.388,1.6,1.6,0,0,1-.032-.307q-.005-1.526,0-3.053c0-1.25,0-2.5,0-3.75,0-.291-.067-.355-.371-.362q-.54-.013-1.082,0c-.4.009-.438.054-.437.452,0,2.229,0,4.459.012,6.688a12.182,12.182,0,0,0,.061,1.311,1.281,1.281,0,0,0,1.68,1.118,3.107,3.107,0,0,0,1.4-.78,1.987,1.987,0,0,1,.262-.186M7.416,124.9H7.377q0-1.2,0-2.4c0-.9,0-1.8,0-2.707,0-.325.063-.381.382-.4.09-.005.18-.006.271-.006.4,0,.8.008,1.2,0,.3-.005.362-.07.367-.369.007-.374.009-.748,0-1.121-.006-.26-.075-.332-.305-.362a1.728,1.728,0,0,0-.232-.009l-3.556.012c-.67,0-1.34-.006-2.01.007-.366.007-.422.079-.425.441,0,.335,0,.671,0,1.006s.039.382.375.389c.451.01.9,0,1.352.011.4.01.446.046.461.446.019.5.014,1.005.015,1.508q.008,3.015.014,6.031c0,.876,0,1.753.006,2.629,0,.355.06.422.394.429.451.01.9.007,1.353,0,.25-.006.326-.079.348-.319.02-.218.028-.437.028-.656q0-2.28,0-4.56" transform="translate(-0.001 -95.085)"/>
        <path id="Path_1165" data-name="Path 1165" class="cls-2" d="M30.942,5.6a1.58,1.58,0,0,0,.141-.288c.182-.7.357-1.4.533-2.093.226-.9.457-1.792.676-2.69.115-.474.169-.531.643-.529.515,0,1.031,0,1.546.012.3.008.367.114.288.4-.045.161-.114.315-.169.473-.3.876-.606,1.751-.9,2.629-.306.915-.6,1.833-.9,2.749-.109.33-.215.662-.341.985A5.85,5.85,0,0,0,32.1,9.549c.034,1.442.007,2.886,0,4.329,0,.343-.094.442-.435.447-.5.008-1,0-1.507-.007-.367,0-.432-.059-.441-.423C29.7,13.3,29.7,12.71,29.7,12.117c0-.928,0-1.856.017-2.783a3.78,3.78,0,0,0-.232-1.319c-.323-.95-.62-1.909-.94-2.86-.311-.926-.64-1.847-.954-2.772-.223-.658-.437-1.32-.648-1.982-.089-.281-.015-.381.286-.386.554-.008,1.108,0,1.662-.008a.379.379,0,0,1,.426.305c.176.646.357,1.29.535,1.935.1.372.208.744.306,1.117.165.622.322,1.246.491,1.867a2.434,2.434,0,0,0,.166.365l.124,0" transform="translate(-22.573 0.001)"/>
        <path id="Path_1166" data-name="Path 1166" class="cls-2" d="M77.358,26.927c0-.85,0-1.7,0-2.549a2.972,2.972,0,0,1,.307-1.418,2.51,2.51,0,0,1,1.615-1.283,3.837,3.837,0,0,1,2.5.048,2.613,2.613,0,0,1,1.732,2.506c.034,1.775.018,3.551.027,5.326a3.352,3.352,0,0,1-.409,1.707,2.445,2.445,0,0,1-1.378,1.124,3.966,3.966,0,0,1-2.434.043,2.688,2.688,0,0,1-1.682-1.487,3.473,3.473,0,0,1-.272-1.467c-.013-.849,0-1.7,0-2.549h0m2.192.048h0c0,.939,0,1.878,0,2.817,0,.826.508,1.016,1.131.917a.83.83,0,0,0,.7-.842q0-2.8,0-5.6a.726.726,0,0,0-.653-.849.866.866,0,0,0-1.18.89q0,1.331,0,2.663" transform="translate(-64.888 -18.026)"/>
        <path id="Path_1167" data-name="Path 1167" class="cls-2" d="M130.17,32.613a2.211,2.211,0,0,0-.331.209,3.341,3.341,0,0,1-1.883.9,1.371,1.371,0,0,1-1.568-1.3,13.274,13.274,0,0,1-.069-1.813c-.006-2.307,0-4.614,0-6.921,0-.683,0-.685.691-.683.335,0,.67-.008,1.005,0,.371.006.457.1.458.459q0,3.673.01,7.346a4.239,4.239,0,0,0,.025.54.477.477,0,0,0,.669.429,2.153,2.153,0,0,0,.977-.668.6.6,0,0,0,.117-.353c.005-1.5,0-2.99,0-4.485q0-1.411,0-2.822c0-.375.072-.447.457-.45q.618-.006,1.237.008c.353.008.428.083.429.441,0,1.134,0,2.268,0,3.4q0,2.4,0,4.793c0,.49,0,.98,0,1.469-.005.383-.076.458-.449.467-.412.01-.825.011-1.237,0-.347-.007-.422-.091-.434-.445-.005-.151,0-.3,0-.453l-.1-.069" transform="translate(-105.956 -19.289)"/>
        <path id="Path_1172" data-name="Path 1172" class="cls-2" d="M118.6,172.3c0-.836.027-1.674-.009-2.509a.774.774,0,0,1,1.081-.758.586.586,0,0,1,.433.5,5.474,5.474,0,0,1,.063.805q.01,2.2,0,4.4a3.34,3.34,0,0,1-.053.575.44.44,0,0,1-.135.265.927.927,0,0,1-.952.046.641.641,0,0,1-.433-.658c0-.888,0-1.775,0-2.663h0" transform="translate(-99.479 -141.752)"/>
        <path id="Path_1173" data-name="Path 1173" class="cls-2" d="M159.5,171.223c-.154,0-.309.009-.463,0-.215-.015-.323-.106-.324-.307a10.778,10.778,0,0,1,.042-1.153.629.629,0,0,1,.6-.638c.492-.061.735.063.907.463a2.962,2.962,0,0,1,.123,1.334c-.008.2-.169.281-.35.293s-.36,0-.54,0v.007" transform="translate(-133.126 -141.85)"/>
      </g>
    </g>
  </g>
</svg>
