<svg xmlns="http://www.w3.org/2000/svg" xmlns:xlink="http://www.w3.org/1999/xlink" width="42" height="41" viewBox="0 0 42 41">
  <defs>
    <clipPath id="clip-path">
      <rect id="Rectangle_2089" data-name="Rectangle 2089" width="18.933" height="12.836" fill="#391280"/>
    </clipPath>
  </defs>
  <g id="Group_9295" data-name="Group 9295" transform="translate(-1258 -945)">
    <path id="Ellipse_1746" data-name="Ellipse 1746" d="M21,1a20.314,20.314,0,0,0-7.793,1.535A19.97,19.97,0,0,0,6.849,6.72a19.417,19.417,0,0,0-4.281,6.2,19.117,19.117,0,0,0,0,15.164,19.417,19.417,0,0,0,4.281,6.2,19.97,19.97,0,0,0,6.358,4.185,20.543,20.543,0,0,0,15.585,0,19.97,19.97,0,0,0,6.358-4.185,19.417,19.417,0,0,0,4.281-6.2,19.117,19.117,0,0,0,0-15.164,19.417,19.417,0,0,0-4.281-6.2,19.97,19.97,0,0,0-6.358-4.185A20.314,20.314,0,0,0,21,1m0-1A20.755,20.755,0,0,1,42,20.5,20.755,20.755,0,0,1,21,41,20.755,20.755,0,0,1,0,20.5,20.755,20.755,0,0,1,21,0Z" transform="translate(1258 945)" fill="#391280"/>
    <g id="Group_8639" data-name="Group 8639" transform="translate(1269.535 959.164)">
      <g id="Group_8638" data-name="Group 8638" clip-path="url(#clip-path)">
        <path id="Path_23322" data-name="Path 23322" d="M9.819,75.423a.693.693,0,0,1-.7,0L.3,70.216a.2.2,0,0,0-.3.169v7.909a1.488,1.488,0,0,0,1.488,1.488H17.444a1.488,1.488,0,0,0,1.488-1.488V70.385a.2.2,0,0,0-.3-.169Z" transform="translate(0 -66.947)" fill="#391280"/>
        <path id="Path_23323" data-name="Path 23323" d="M9.955,6.844l8.973-5.3a.2.2,0,0,0,.1-.183A1.49,1.49,0,0,0,17.541,0H1.585A1.49,1.49,0,0,0,.1,1.363a.2.2,0,0,0,.1.183l8.973,5.3a.77.77,0,0,0,.783,0" transform="translate(-0.097)" fill="#391280"/>
      </g>
    </g>
  </g>
</svg>
