<svg xmlns="http://www.w3.org/2000/svg" width="41" height="41" viewBox="0 0 41 41">
  <g id="Group_9296" data-name="Group 9296" transform="translate(-1314 -945)">
    <path id="Ellipse_1744" data-name="Ellipse 1744" d="M20.5,1a19.505,19.505,0,0,0-7.59,37.468A19.505,19.505,0,0,0,28.09,2.532,19.377,19.377,0,0,0,20.5,1m0-1A20.5,20.5,0,1,1,0,20.5,20.5,20.5,0,0,1,20.5,0Z" transform="translate(1314 945)" fill="#391280"/>
    <path id="Path_23036" data-name="Path 23036" d="M879.942,518.023h0s-3.194-1.165-3.194,1.207v1.792h3.116l-.276,2.961h-2.84V534.07h-3.816V523.983h-1.87v-2.961h1.87v-3.114s-.04-2.4,3.1-3.1a9.219,9.219,0,0,1,4.341.214Z" transform="translate(459.037 440.99)" fill="#391280" fill-rule="evenodd"/>
  </g>
</svg>
