<svg xmlns="http://www.w3.org/2000/svg" width="41" height="41" viewBox="0 0 41 41">
  <g id="Group_9297" data-name="Group 9297" transform="translate(-1369 -945)">
    <path id="Ellipse_1747" data-name="Ellipse 1747" d="M20.5,1a19.505,19.505,0,0,0-7.59,37.468A19.505,19.505,0,0,0,28.09,2.532,19.377,19.377,0,0,0,20.5,1m0-1A20.5,20.5,0,1,1,0,20.5,20.5,20.5,0,0,1,20.5,0Z" transform="translate(1369 945)" fill="#391280"/>
    <path id="Forma_1" data-name="Forma 1" d="M951.309,4827.936H951.3a10.138,10.138,0,0,0-8.211,16.091l-1.264,3.77,3.9-1.247a10.143,10.143,0,1,0,5.581-18.614Zm5.9,14.326a2.862,2.862,0,0,1-1.991,1.432c-.53.113-1.223.2-3.553-.763a12.71,12.71,0,0,1-5.051-4.461,5.8,5.8,0,0,1-1.2-3.061,3.239,3.239,0,0,1,1.037-2.469,1.474,1.474,0,0,1,1.037-.364c.126,0,.239.007.34.012.3.013.448.031.644.5.245.59.841,2.046.912,2.195a.606.606,0,0,1,.043.55,1.761,1.761,0,0,1-.328.466c-.15.172-.292.3-.441.49-.137.161-.292.333-.119.63a8.982,8.982,0,0,0,1.646,2.046,7.445,7.445,0,0,0,2.379,1.467.64.64,0,0,0,.715-.113,12.108,12.108,0,0,0,.793-1.05.566.566,0,0,1,.728-.22c.274.1,1.723.812,2.021.96s.495.22.567.346A2.529,2.529,0,0,1,957.212,4842.262Z" transform="translate(438.527 -3873.166)" fill="#391280"/>
  </g>
</svg>
