<svg xmlns="http://www.w3.org/2000/svg" width="323.082" height="60.856" viewBox="0 0 323.082 60.856">
  <defs>
    <style>
      .cls-1 {
        fill: #dff8ff;
      }
    </style>
  </defs>
  <path id="Path_23200" data-name="Path 23200" class="cls-1" d="M14.409,54.135c-1.22.116-2.438.229-3.671.3-.692.04-.737.987-1.208,1.262-.749.435-2.382.357-3.251.488q-3.139.475-6.279.949c8.712,2.061,17.725,2.406,26.675,2.683,98.8,3.048,197.655-1.186,296.407-5.419a104.657,104.657,0,0,0-38.3-2.513c2.394-2.334-1.331-6.219-4.674-6.322s-7.032,1.212-9.834-.614a19.061,19.061,0,0,0-19.151-8.716c1.333-4.257-1.3-9.005-5.122-11.3s-8.523-2.593-12.972-2.276a54.111,54.111,0,0,0-33.424,14.925,20.808,20.808,0,0,0-4.371-22.649A20.81,20.81,0,0,0,172.5,11.026c1.11-4.038-3.428-7.945-7.59-7.482s-7.419,3.9-9.328,7.632a8.429,8.429,0,0,0-10.076-5.194c-.472-5.374-7.857-7.022-12.99-5.364-8.045,2.6-14.02,9.326-18.913,16.219-11.592-1.142-22.868,9.669-22.208,21.3A12.757,12.757,0,0,0,80.437,48.693a118.449,118.449,0,0,1-29.272,1.888c-.452-.026-1.949-1.81-2.418-2.147a16.617,16.617,0,0,0-2.892-1.654,18.989,18.989,0,0,0-6.5-1.575,20.161,20.161,0,0,0-12.8,3.456c-1.718,1.2-2.91,3.193-4.69,4.238s-4.564.949-6.532,1.16Z" transform="translate(0 0)"/>
</svg>
