<svg xmlns="http://www.w3.org/2000/svg" width="581.351" height="109.503" viewBox="0 0 581.351 109.503">
  <defs>
    <style>
      .cls-1 {
        fill: #7c33a5;
        opacity: 0.4;
      }
    </style>
  </defs>
  <path id="Path_23191" data-name="Path 23191" class="cls-1" d="M25.927,97.409c-2.195.208-4.386.412-6.606.545-1.245.072-1.327,1.775-2.173,2.27-1.349.782-4.286.642-5.85.879q-5.649.855-11.3,1.707c15.677,3.708,31.895,4.329,48,4.827,177.773,5.484,355.658-2.134,533.352-9.752a188.319,188.319,0,0,0-68.915-4.523c4.307-4.2-2.4-11.19-8.41-11.376s-12.653,2.181-17.7-1.1A34.3,34.3,0,0,0,451.87,65.2c2.4-7.661-2.335-16.2-9.217-20.332s-15.336-4.666-23.341-4.1a97.366,97.366,0,0,0-60.142,26.856A37.442,37.442,0,0,0,351.3,26.873,37.446,37.446,0,0,0,310.4,19.84c2-7.266-6.169-14.3-13.657-13.464S283.389,13.4,279.953,20.109c-2.381-7.137-10.932-11.549-18.13-9.346-.85-9.669-14.138-12.635-23.373-9.651-14.475,4.677-25.228,16.781-34.033,29.184-20.859-2.055-41.148,17.4-39.961,38.329a22.955,22.955,0,0,0-19.719,18.994,213.136,213.136,0,0,1-52.672,3.4c-.814-.047-3.508-3.257-4.35-3.863a29.9,29.9,0,0,0-5.2-2.977,34.169,34.169,0,0,0-11.688-2.833,36.277,36.277,0,0,0-23.029,6.219c-3.092,2.166-5.236,5.746-8.439,7.625-3.178,1.869-8.213,1.707-11.753,2.087Z" transform="translate(0 0)"/>
</svg>
