<svg xmlns="http://www.w3.org/2000/svg" width="525.895" height="88.508" viewBox="0 0 525.895 88.508">
  <defs>
    <style>
      .cls-1 {
        fill: #7c33a5;
      }
    </style>
  </defs>
  <g id="Group_9155" data-name="Group 9155" transform="translate(-298 -4248.288)">
    <path id="Path_23187" data-name="Path 23187" class="cls-1" d="M522.654,51.768a14.838,14.838,0,0,0-3.5-.308c-4.5-.026-46.937,1.318-47.262.017a5.9,5.9,0,0,0-3.871-4.031,148.285,148.285,0,0,0-65.4-4.883c-4.994-21.351-59.97-13.042-74.468-10.921-5.195.762-10.546,1.7-15.418,3.732-7.574,3.161-7.39,6.771-13.318,1.312-8.717-8.024-11.753-19.612-22.651-26.15-22.8-13.676-50.319-9.229-75.213-5.308a370.881,370.881,0,0,0-44.5,9.839c-14.385,4.124-28.227,10.674-42.894,12.957a4.9,4.9,0,0,0-4,3.586l-.108.044c-5.4,2.065-16.023.553-21.921,1.181C72.7,34.477,42.007,35.853,34.442,52.728c-1.594,3.56-1.411,6.518-.125,8.909q-8,.759-15.979,1.588c-4.694-.71-9.391-1.416-14.129-1.853-4.136-.381-5.9,6.175-2.144,7.934C23.8,79.474,49,80.736,72.572,78.936a263.33,263.33,0,0,0,35.62-5.276c9.38-2.027,22.654-9.185,31.888-9.258,18.777-.151,37.563.175,56.366,1.373,51.782,3.3,111.013,18.658,161.632.669,7.984,1.637,17.73.5,26.191-2.862,6.733-2.673,21.459.809,28.893.913a791.535,791.535,0,0,0,108.212-5.869c4.488-.556,6.826-5.459,1.28-6.858" transform="translate(298 4247.01)"/>
    <path id="Path_23187-2" data-name="Path 23187" class="cls-1" d="M522.654,51.768a14.838,14.838,0,0,0-3.5-.308c-4.5-.026-46.937,1.318-47.262.017a5.9,5.9,0,0,0-3.871-4.031,148.285,148.285,0,0,0-65.4-4.883c-4.994-21.351-59.97-13.042-74.468-10.921-5.195.762-10.546,1.7-15.418,3.732-7.574,3.161-7.39,6.771-13.318,1.312-8.717-8.024-11.753-19.612-22.651-26.15-22.8-13.676-50.319-9.229-75.213-5.308a370.881,370.881,0,0,0-44.5,9.839c-14.385,4.124-28.227,10.674-42.894,12.957a4.9,4.9,0,0,0-4,3.586l-.108.044c-5.4,2.065-16.023.553-21.921,1.181C72.7,34.477,42.007,35.853,34.442,52.728c-1.594,3.56-1.411,6.518-.125,8.909q-8,.759-15.979,1.588c-4.694-.71-9.391-1.416-14.129-1.853-4.136-.381-5.9,6.175-2.144,7.934C23.8,79.474,49,80.736,72.572,78.936a263.33,263.33,0,0,0,35.62-5.276c9.38-2.027,22.654-9.185,31.888-9.258,18.777-.151,37.563.175,56.366,1.373,51.782,3.3,111.013,18.658,161.632.669,7.984,1.637,17.73.5,26.191-2.862,6.733-2.673,21.459.809,28.893.913a791.535,791.535,0,0,0,108.212-5.869c4.488-.556,6.826-5.459,1.28-6.858" transform="translate(298 4257.174)"/>
  </g>
</svg>
