<svg xmlns="http://www.w3.org/2000/svg" width="116.562" height="37.077" viewBox="0 0 116.562 37.077">
  <defs>
    <style>
      .cls-1 {
        fill: #7c33a5;
      }
    </style>
  </defs>
  <g id="Group_9154" data-name="Group 9154" transform="translate(-38.809 -4198.084)">
    <path id="Path_23190" data-name="Path 23190" class="cls-1" d="M417.1,46.505c-1.22-.153-2.446-.275-3.667-.4a2.285,2.285,0,0,0-.965-.56,52.125,52.125,0,0,0-6.97-1.531,2.867,2.867,0,0,0-.71-.155c-.136-.01-.281-.012-.417-.02-.074-.01-.151-.016-.225-.026a5.9,5.9,0,0,0-.367-1.425c-.815-2.015-2.623-3.165-4.853-3.773a8.943,8.943,0,0,0-6.888-1.955c-3.327.245-7.118.953-9.725,2.737-.066-.046-.126-.094-.2-.136a5.731,5.731,0,0,0-1.527-1.218c-.086-.046-.2-.076-.291-.12-1.9-5.142-10.245-6.434-16.173-4.622C360.9,20.873,336.577,27.63,336,37.96c-9.4-2.29-21.443-.716-27.145,6.314-1.056,1.3-.431,2.878.612,3.976.068.072.136.144.2.213q-3.591.338-7.183.735c-1.029.116-1.11,1.427,0,1.4,4.634-.1,9.248-.273,13.845-.628.028.006.046.02.074.024a83.407,83.407,0,0,0,15.9.983c11.04.759,22.487.331,33.224.353,42.22.086,16.653,5.908,44.942-1.9,2.073-.078,4.146-.177,6.215-.331,1.626-.118,2.314-2.36.421-2.6" transform="translate(-262.875 4171.497)"/>
    <path id="Path_23190-2" data-name="Path 23190" class="cls-1" d="M417.1,46.505c-1.22-.153-2.446-.275-3.667-.4a2.285,2.285,0,0,0-.965-.56,52.125,52.125,0,0,0-6.97-1.531,2.867,2.867,0,0,0-.71-.155c-.136-.01-.281-.012-.417-.02-.074-.01-.151-.016-.225-.026a5.9,5.9,0,0,0-.367-1.425c-.815-2.015-2.623-3.165-4.853-3.773a8.943,8.943,0,0,0-6.888-1.955c-3.327.245-7.118.953-9.725,2.737-.066-.046-.126-.094-.2-.136a5.731,5.731,0,0,0-1.527-1.218c-.086-.046-.2-.076-.291-.12-1.9-5.142-10.245-6.434-16.173-4.622C360.9,20.873,336.577,27.63,336,37.96c-9.4-2.29-21.443-.716-27.145,6.314-1.056,1.3-.431,2.878.612,3.976.068.072.136.144.2.213q-3.591.338-7.183.735c-1.029.116-1.11,1.427,0,1.4,4.634-.1,9.248-.273,13.845-.628.028.006.046.02.074.024a83.407,83.407,0,0,0,15.9.983c11.04.759,22.487.331,33.224.353,42.22.086,16.653,5.908,44.942-1.9,2.073-.078,4.146-.177,6.215-.331,1.626-.118,2.314-2.36.421-2.6" transform="translate(-262.875 4181.661)"/>
  </g>
</svg>
