<svg xmlns="http://www.w3.org/2000/svg" width="507.479" height="64.566" viewBox="0 0 507.479 64.566">
  <defs>
    <style>
      .cls-1 {
        fill: #7c33a5;
      }
    </style>
  </defs>
  <path id="Path_23186" data-name="Path 23186" class="cls-1" d="M717.37,47.283a18.682,18.682,0,0,0-3.988.422c-7.347,1.1-13.478-5.139-20.2-8.307-7.777-3.665-15.412-2.437-23.631-2.394-6.7.035-9.778-2.455-16.11-4.177-11.561-3.144-24.274.4-35.888,1.515-9.418.9-18.783,3.176-28.139,3.953-.3-1.87-1.062-4.427-2.655-5.724-1.765-1.434-4.086-1.946-6.32-2.344-4.784-.852-57.617-1.1-56.791,4.293-.07-.457-.122-.907-.233-1.376C519.409,16.431,487.2,11.582,473.2,9.482a77.15,77.15,0,0,0-29.576.864c-10.342,2.522-18.992,8.856-29.082,12.082,3.388-1.082-4.063-12.349-5.055-13.388A28.489,28.489,0,0,0,393.74.8c-13.655-2.51-28.782,1.178-41.155,6.916-15,6.957-27.9,17.762-39.543,29.509-13.553-7.728-30.635-5.328-45.349-.143s-28.666,12.937-44.04,15.581c-3.278.564-6.829.995-9.266,3.255s-2.612,7.126.486,8.333a7.313,7.313,0,0,0,2.935.294c119.526-4.389,239.07-2.859,358.639-6.128q12.687-.345,25.373-.791l111.755-3.944c3.266-.116,7.844-2.475,6.055-5.206a2.772,2.772,0,0,0-2.26-1.192" transform="translate(-212.552 0)"/>
</svg>
