<svg xmlns="http://www.w3.org/2000/svg" xmlns:xlink="http://www.w3.org/1999/xlink" width="1920" height="157" viewBox="0 0 1920 157">
  <defs>
    <clipPath id="clip-path">
      <rect id="Rectangle_4127" data-name="Rectangle 4127" width="1920" height="157" transform="translate(0 479)" fill="#fff" stroke="#707070" stroke-width="1"/>
    </clipPath>
    <clipPath id="clip-path-2">
      <rect id="Rectangle_353" data-name="Rectangle 353" width="2434.457" height="201.119" fill="#fff"/>
    </clipPath>
  </defs>
  <g id="Mask_Group_36" data-name="Mask Group 36" transform="translate(0 -479)" clip-path="url(#clip-path)">
    <g id="Group_9015" data-name="Group 9015" transform="translate(-429.457 434.937)">
      <g id="Group_8951" data-name="Group 8951" clip-path="url(#clip-path-2)">
        <path id="Path_23167" data-name="Path 23167" d="M2436.411,138.956v74.085H1.954L-10,40A88.421,88.421,0,0,1,8.4,65.063c10.558-5.6,24-8.857,38.487-9.868,40.924-2.857,91.974,13.192,99.943,37.414,3.642,11.059-5.685,8.22,17.9,6.573,43.563-3.038,83.129,5.994,117.67,19.157a466.331,466.331,0,0,1,55.25,25.718c18.895-11.632,46.228-18.222,75.452-20.261,49.527-3.453,94.8,8.606,139.889,17.784q9.8,2,19.643,3.932c47.446,9.342,107.366-10.44,155.777-3.143,3.236.491,6.459.97,9.695,1.449q5.177.754,10.355,1.513,5.52.8,11.053,1.583c3.934.561,7.88,1.11,11.814,1.653q6.3.876,12.613,1.723c2.17.292,4.352.584,6.522.87q6.967.929,13.933,1.823a.033.033,0,0,0,.025,0c2.55.333,5.114.654,7.664.982q7.709.981,15.418,1.922l7.969.964L844.3,157.9q8.794,1.034,17.613,2.033,7.062.806,14.123,1.572t14.136,1.519q3.54.377,7.081.742,10.621,1.1,21.268,2.15,3.407.342,6.814.666c2.462.24,4.936.473,7.4.707l5.013.473c1.764.164,3.528.333,5.3.491q11.382,1.052,22.778,2.039,7.271.631,14.542,1.233,3.731.315,7.487.613c2.182.181,4.378.356,6.573.526.85.07,1.7.14,2.551.2,2.386.193,4.784.38,7.17.561q14.352,1.113,28.729,2.127c167.679,11.842,488.825,2.2,573.845,6.315,51.811-1.747,104.232-1.367,156.512-3.879,14.466-.7,53.341-7.764,66.728-7.764,0,0,6.949,7.764,53.063,7.764,31.394,0,66.478-3.108,96.552-4.528-7.017-2.588-15.456-1.94-22.473-3.237,38.487-10.037,82.824-15.675,125.537-15.675,13.261,0,14.073-.14,14.073,1.9,0,7.133-25.849,9.9,32.726,9.9,21.064,0,126.337-5.217,126.337-15.6Z" transform="translate(-1.954 -11.923)" fill="#fff"/>
      </g>
    </g>
  </g>
</svg>
