<svg xmlns="http://www.w3.org/2000/svg" xmlns:xlink="http://www.w3.org/1999/xlink" width="585.837" height="886.079" viewBox="0 0 585.837 886.079">
  <defs>
    <style>
      .cls-1 {
        fill: url(#linear-gradient);
      }
    </style>
    <linearGradient id="linear-gradient" x1="0.5" y1="0.272" x2="0.5" y2="1" gradientUnits="objectBoundingBox">
      <stop offset="0" stop-color="#ae21fe" stop-opacity="0"/>
      <stop offset="0.626" stop-color="#461871" stop-opacity="0.722"/>
      <stop offset="1" stop-color="#391f67"/>
    </linearGradient>
  </defs>
  <path id="Path_26609" data-name="Path 26609" class="cls-1" d="M347.641,0a25.467,25.467,0,0,1,25.464,25.464V58.256a123.425,123.425,0,0,0,116.53,123.236c2.287.138,4.583.2,6.906.2h63.832a25.466,25.466,0,0,1,25.464,25.464V842.92a43.164,43.164,0,0,1-43.159,43.159H43.159A43.158,43.158,0,0,1,0,842.92V43.159A43.153,43.153,0,0,1,43.159,0Z"/>
</svg>
