<svg id="Group_9014" data-name="Group 9014" xmlns="http://www.w3.org/2000/svg" xmlns:xlink="http://www.w3.org/1999/xlink" width="1920" height="270.12" viewBox="0 0 1920 270.12">
  <defs>
    <clipPath id="clip-path">
      <rect id="Rectangle_353" data-name="Rectangle 353" width="1920" height="270.12" fill="#fff"/>
    </clipPath>
  </defs>
  <g id="Group_8951" data-name="Group 8951" clip-path="url(#clip-path)">
    <path id="Path_23167" data-name="Path 23167" d="M1919.427,172.907v99.5H-.572L-10,40A136.322,136.322,0,0,1,4.511,73.662c8.327-7.525,18.925-11.9,30.354-13.253,32.276-3.837,72.537,17.718,78.822,50.25,2.872,14.854-4.484,11.04,14.121,8.827,34.357-4.08,65.562,8.051,92.8,25.729,15.933,10.326,30.514,22.559,43.574,34.541,14.9-15.623,36.459-24.474,59.507-27.212,39.061-4.637,74.769,11.558,110.327,23.885q7.731,2.684,15.492,5.281c37.42,12.547,84.677-14.021,122.857-4.221,2.552.659,5.094,1.3,7.646,1.946q4.083,1.012,8.166,2.032,4.354,1.071,8.717,2.126c3.1.753,6.215,1.491,9.317,2.221q4.969,1.177,9.948,2.315c1.711.392,3.433.785,5.144,1.169q5.494,1.248,10.989,2.448a.017.017,0,0,0,.02,0c2.012.447,4.033.879,6.045,1.318q6.08,1.318,12.16,2.582l6.285,1.295,6.956,1.412q6.935,1.389,13.891,2.731,5.569,1.083,11.139,2.111t11.149,2.04q2.792.506,5.584,1,8.377,1.483,16.773,2.888,2.687.459,5.374.895c1.942.322,3.893.636,5.835.949l3.953.636c1.391.22,2.782.447,4.183.659q8.977,1.412,17.964,2.738,5.735.847,11.469,1.656,2.942.424,5.9.824c1.721.243,3.453.479,5.184.706.671.094,1.341.188,2.012.275,1.881.259,3.773.51,5.655.753q11.319,1.495,22.658,2.856c132.245,15.905,385.525,2.95,452.578,8.482,40.862-2.346,82.205-1.836,123.438-5.21,11.409-.934,42.069-10.428,52.627-10.428,0,0,5.481,10.428,41.849,10.428,24.76,0,52.43-4.174,76.149-6.081-5.534-3.476-12.19-2.605-17.724-4.347a248.677,248.677,0,0,1,99.008-21.053c10.458,0,11.1-.188,11.1,2.55,0,9.581-20.386,13.3,25.81,13.3,16.613,0,99.639-7.007,99.639-20.958Z" transform="translate(0.572 -2.29)" fill="#fff"/>
  </g>
</svg>
