<svg xmlns="http://www.w3.org/2000/svg" xmlns:xlink="http://www.w3.org/1999/xlink" width="1920" height="186" viewBox="0 0 1920 186">
  <defs>
    <style>
      .cls-1 {
        fill: #fff;
        stroke: #707070;
      }

      .cls-2 {
        fill: #08071b;
      }

      .cls-3 {
        clip-path: url(#clip-path);
      }

      .cls-4 {
        clip-path: url(#clip-path-2);
      }
    </style>
    <clipPath id="clip-path">
      <rect id="Rectangle_4165" data-name="Rectangle 4165" class="cls-1" width="1920" height="186" transform="translate(0 8621)"/>
    </clipPath>
    <clipPath id="clip-path-2">
      <rect id="Rectangle_353" data-name="Rectangle 353" class="cls-2" width="2648.249" height="372.576"/>
    </clipPath>
  </defs>
  <g id="Mask_Group_66" data-name="Mask Group 66" class="cls-3" transform="translate(0 -8621)">
    <g id="Group_9019" data-name="Group 9019" transform="translate(-324 8617)">
      <g id="Group_8951" data-name="Group 8951" class="cls-4" transform="translate(-404.73 4.06)">
        <path id="Path_23167" data-name="Path 23167" class="cls-2" d="M2651.252,177.244V40H3L-10,360.562a188.024,188.024,0,0,0,20.016-46.43c11.485,10.379,26.1,16.407,41.867,18.28C96.4,337.7,151.933,307.974,160.6,263.1c3.962-20.488-6.184-15.228,19.477-12.176,47.389,5.628,90.429-11.1,128-35.488,21.976-14.243,42.088-31.116,60.1-47.642,20.554,21.548,50.287,33.756,82.078,37.534,53.877,6.4,103.129-15.942,152.174-32.945q10.664-3.7,21.368-7.284c51.613-17.306,116.795,19.339,169.457,5.822,3.52-.909,7.026-1.8,10.546-2.684q5.632-1.4,11.264-2.8,6-1.477,12.023-2.933c4.279-1.039,8.572-2.056,12.851-3.063q6.854-1.623,13.721-3.193c2.361-.541,4.735-1.082,7.1-1.613q7.578-1.721,15.157-3.377a.023.023,0,0,1,.028,0c2.774-.617,5.563-1.212,8.337-1.818q8.386-1.818,16.772-3.561l8.669-1.786,9.594-1.948q9.566-1.916,19.16-3.766,7.682-1.494,15.364-2.911t15.378-2.814q3.851-.7,7.7-1.374,11.554-2.046,23.135-3.983,3.706-.633,7.413-1.234c2.678-.444,5.37-.877,8.048-1.31l5.453-.877c1.919-.3,3.837-.617,5.77-.909q12.382-1.948,24.778-3.777,7.91-1.169,15.819-2.284,4.059-.584,8.145-1.136c2.374-.336,4.762-.66,7.15-.974.925-.13,1.85-.26,2.774-.379,2.6-.357,5.2-.7,7.8-1.039q15.612-2.062,31.252-3.94c182.4-21.938,531.753-4.069,624.239-11.7,56.361,3.236,113.385,2.533,170.257,7.186,15.736,1.288,58.026,14.384,72.589,14.384,0,0,7.559-14.384,57.723-14.384,34.151,0,72.316,5.758,105.031,8.388-7.634,4.795-16.813,3.593-24.447,6a343,343,0,0,0,136.561,29.038c14.426,0,15.309.26,15.309-3.517,0-13.215-28.119-18.345,35.6-18.345,22.914,0,137.431,9.665,137.431,28.908Z" transform="translate(-3.003 -40)"/>
      </g>
    </g>
  </g>
</svg>
