<svg xmlns="http://www.w3.org/2000/svg" xmlns:xlink="http://www.w3.org/1999/xlink" width="750" height="91.578" viewBox="0 0 750 91.578">
  <defs>
    <style>
      .cls-1 {
        fill: #100f1e;
      }

      .cls-2 {
        clip-path: url(#clip-path);
      }
    </style>
    <clipPath id="clip-path">
      <rect id="Rectangle_444" data-name="Rectangle 444" class="cls-1" width="750" height="91.578"/>
    </clipPath>
  </defs>
  <g id="Group_9104" data-name="Group 9104" transform="translate(750 91.578) rotate(-180)">
    <g id="Group_9074" data-name="Group 9074" class="cls-2">
      <path id="Path_23214" data-name="Path 23214" class="cls-1" d="M742.856.189c-12.721-1.651-28.594,7.635-31.07,21.662-1.131,6.4,1.769,4.759-5.565,3.8-13.549-1.762-25.847,3.47-36.585,11.1a134.247,134.247,0,0,0-17.174,14.881C646.587,44.9,638.092,41.083,629,39.9c-15.393-1.995-29.472,4.982-43.489,10.3q-3.041,1.155-6.108,2.273c-14.749,5.409-33.376-6.039-48.428-1.819-1,.288-2,.566-3.013.835-1.074.3-2.148.585-3.221.882l-3.436.918c-1.219.325-2.451.64-3.67.955-1.308.334-2.615.668-3.922.993-.676.176-1.352.343-2.028.51-1.447.352-2.887.7-4.333,1.048,0,.009-.006.009-.006,0-.8.2-1.592.381-2.381.575q-2.4.57-4.794,1.114l-2.476.556-2.741.6c-1.825.4-3.651.8-5.476,1.179-1.465.315-2.931.612-4.39.909s-2.931.594-4.4.881c-.733.148-1.465.288-2.2.427q-3.3.64-6.607,1.253c-.707.129-1.415.26-2.122.38-.764.139-1.535.278-2.3.408l-1.56.279c-.543.093-1.093.195-1.649.287q-3.534.612-7.081,1.178c-1.5.241-3.013.483-4.516.714-.777.121-1.554.241-2.331.352-.676.112-1.358.2-2.04.306-.265.037-.531.083-.8.121-.739.111-1.484.222-2.23.325q-4.463.64-8.931,1.234C419.5,72.092,397.7,73.008,375,73.315c-22.7-.307-44.5-1.223-61.326-3.436q-4.472-.6-8.931-1.234c-.745-.1-1.491-.214-2.23-.325-.265-.037-.531-.083-.8-.121-.682-.1-1.364-.195-2.04-.306-.777-.111-1.554-.232-2.331-.352-1.5-.232-3.013-.473-4.516-.714q-3.544-.57-7.081-1.178c-.556-.093-1.105-.195-1.649-.287l-1.56-.279c-.764-.13-1.535-.269-2.3-.408-.707-.121-1.415-.251-2.122-.38q-3.307-.612-6.607-1.253c-.739-.139-1.472-.279-2.2-.427-1.465-.287-2.931-.584-4.4-.881s-2.924-.594-4.39-.909c-1.825-.381-3.651-.779-5.476-1.179l-2.741-.6-2.476-.556q-2.4-.543-4.794-1.114c-.79-.195-1.585-.38-2.381-.575,0,.009-.006.009-.006,0-1.446-.343-2.887-.7-4.333-1.048-.676-.167-1.352-.334-2.028-.51-1.307-.325-2.615-.659-3.922-.993-1.219-.315-2.451-.63-3.67-.955l-3.436-.918c-1.074-.3-2.148-.585-3.221-.882-1.011-.269-2.009-.547-3.013-.835-15.052-4.221-33.679,7.227-48.428,1.819q-3.06-1.113-6.108-2.273C150.47,44.886,136.391,37.91,121,39.9c-9.089,1.178-17.585,5-23.459,11.726A134.25,134.25,0,0,0,80.364,36.75c-10.738-7.626-23.036-12.858-36.585-11.1-7.333.956-4.434,2.6-5.565-3.8C35.738,7.825,19.865-1.462,7.144.189A21.37,21.37,0,0,0,0,2.4v89.18H750V2.4A21.37,21.37,0,0,0,742.856.189" transform="translate(0 0)"/>
    </g>
  </g>
</svg>
