<svg xmlns="http://www.w3.org/2000/svg" xmlns:xlink="http://www.w3.org/1999/xlink" width="1920" height="149" viewBox="0 0 1920 149">
  <defs>
    <style>
      .cls-1 {
        fill: #fff;
        stroke: #707070;
      }

      .cls-2 {
        fill: #100f1e;
      }

      .cls-3 {
        clip-path: url(#clip-path);
      }

      .cls-4 {
        clip-path: url(#clip-path-2);
      }
    </style>
    <clipPath id="clip-path">
      <rect id="Rectangle_4163" data-name="Rectangle 4163" class="cls-1" width="1920" height="149" transform="translate(0 7287)"/>
    </clipPath>
    <clipPath id="clip-path-2">
      <rect id="Rectangle_353" data-name="Rectangle 353" class="cls-2" width="2243.519" height="315.635"/>
    </clipPath>
  </defs>
  <g id="Mask_Group_64" data-name="Mask Group 64" class="cls-3" transform="translate(0 -7287)">
    <g id="Group_9018" data-name="Group 9018" transform="translate(0 7129)">
      <g id="Group_8951" data-name="Group 8951" class="cls-4" transform="translate(0)">
        <path id="Path_23167" data-name="Path 23167" class="cls-2" d="M-10,195.3V311.571H2233.519L2244.535,40a159.289,159.289,0,0,0-16.957,39.334c-9.73-8.793-22.114-13.9-35.469-15.486-37.714-4.484-84.76,20.7-92.1,58.717-3.356,17.356,5.239,12.9-16.5,10.315-40.146-4.768-76.609,9.407-108.441,30.064-18.617,12.066-35.656,26.36-50.917,40.361-17.413-18.255-42.6-28.6-69.534-31.8-45.643-5.419-87.368,13.506-128.917,27.91q-9.034,3.136-18.1,6.171c-43.725,14.661-98.945-16.384-143.559-4.932-2.982.77-5.952,1.522-8.934,2.274q-4.771,1.183-9.542,2.375-5.087,1.251-10.186,2.485c-3.625.88-7.262,1.742-10.887,2.595q-5.806,1.375-11.624,2.7c-2,.458-4.011.917-6.011,1.366q-6.42,1.458-12.84,2.861a.019.019,0,0,1-.023,0c-2.35.523-4.713,1.027-7.063,1.54q-7.1,1.54-14.209,3.017l-7.344,1.513-8.128,1.65q-8.1,1.623-16.232,3.191-6.508,1.265-13.016,2.466t-13.028,2.384q-3.263.591-6.525,1.164-9.788,1.733-19.6,3.374-3.14.536-6.28,1.045c-2.269.376-4.549.743-6.818,1.109l-4.62.743c-1.625.257-3.251.523-4.888.77q-10.49,1.65-20.991,3.2-6.7.99-13.4,1.935-3.438.5-6.9.963c-2.011.284-4.034.559-6.057.825-.783.11-1.567.22-2.35.321-2.2.3-4.409.6-6.607.88q-13.226,1.747-26.476,3.337c-154.528,18.585-450.486,3.447-528.837,9.911-47.748-2.741-96.057-2.145-144.237-6.088-13.331-1.091-49.157-12.185-61.495-12.185,0,0-6.4,12.185-48.9,12.185-28.932,0-61.264-4.878-88.98-7.106,6.467-4.062,14.244-3.044,20.711-5.08a290.58,290.58,0,0,0-115.691-24.6c-12.221,0-12.969-.22-12.969,2.98,0,11.2,23.821,15.541-30.159,15.541-19.412,0-116.428-8.188-116.428-24.49Z" transform="translate(10 4.064)"/>
      </g>
    </g>
  </g>
</svg>
