<svg xmlns="http://www.w3.org/2000/svg" width="21.914" height="21.911" viewBox="0 0 21.914 21.911">
  <defs>
    <style>
      .cls-1 {
        fill: #fff;
      }
    </style>
  </defs>
  <path id="Path_64" data-name="Path 64" class="cls-1" d="M258.944,370.229H248.487a5.733,5.733,0,0,0-5.729,5.729v10.456a5.733,5.733,0,0,0,5.729,5.727l10.457,0a5.733,5.733,0,0,0,5.729-5.727V375.958A5.733,5.733,0,0,0,258.944,370.229Zm-5.226,16.3a5.343,5.343,0,1,1,0-10.686h0a5.343,5.343,0,1,1,0,10.686Zm5.433-11.949a.951.951,0,1,1,.951.951A.952.952,0,0,1,259.15,374.578Z" transform="translate(-242.758 -370.229)"/>
</svg>
