<svg xmlns="http://www.w3.org/2000/svg" width="17.764" height="21.911" viewBox="0 0 17.764 21.911">
  <defs>
    <style>
      .cls-1 {
        fill: #fff;
      }
    </style>
  </defs>
  <g id="Group_8868" data-name="Group 8868" transform="translate(0 0)">
    <path id="Path_1164" data-name="Path 1164" class="cls-1" d="M8.733,125.221c-.891-.032-1.7-.054-2.519-.092q-1.093-.051-2.185-.131c-.466-.034-.934-.066-1.394-.143a14.311,14.311,0,0,1-1.465-.338.833.833,0,0,1-.486-.42,3.881,3.881,0,0,1-.374-1.123,12.778,12.778,0,0,1-.265-2.4C.035,120.053,0,119.536,0,119.02a20.365,20.365,0,0,1,.139-2.5A9.5,9.5,0,0,1,.5,114.794a1.216,1.216,0,0,1,1-.874c.536-.1,1.069-.219,1.608-.291.476-.063.96-.074,1.44-.1.643-.041,1.286-.09,1.93-.114.814-.03,1.629-.053,2.443-.052s1.658.019,2.486.055c.877.038,1.753.115,2.63.157a13.455,13.455,0,0,1,2.266.344,1.18,1.18,0,0,1,.882.748,7.3,7.3,0,0,1,.4,1.692,15.275,15.275,0,0,1,.169,1.947,22.251,22.251,0,0,1-.046,2.634c-.03.332-.048.665-.1.994-.072.483-.149.966-.26,1.44a3.354,3.354,0,0,1-.308.765.819.819,0,0,1-.525.4,10.558,10.558,0,0,1-1.683.346c-.95.11-1.9.193-2.858.234-1.1.047-2.208.072-3.237.1m1.832-7.36a1.489,1.489,0,0,1-.046-.242c0-.574,0-1.147,0-1.721,0-.194-.059-.256-.25-.252-.134,0-.269.008-.4.008-.4,0-.406,0-.4.4q.007,2.359.01,4.718c0,.581,0,1.162,0,1.743,0,.195.046.238.238.24.17,0,.34,0,.51,0,.243-.006.243-.007.332-.235,0-.011.021-.018.045-.037.072.046.148.1.225.143a1.145,1.145,0,0,0,1.016.134.807.807,0,0,0,.458-.385,1.589,1.589,0,0,0,.165-.8c0-.928,0-1.856,0-2.784a2.264,2.264,0,0,0-.08-.608.871.871,0,0,0-.419-.586,1.11,1.11,0,0,0-1.232.153l-.164.119M13,120.1h0c0,.425-.015.851,0,1.275a1.6,1.6,0,0,0,.384,1.076,1.327,1.327,0,0,0,.829.429,3.787,3.787,0,0,0,.552,0,1.308,1.308,0,0,0,.564-.172,1.191,1.191,0,0,0,.575-.651,2.529,2.529,0,0,0,.138-.876c0-.12-.038-.165-.169-.169-.233-.008-.467-.008-.7,0-.145.007-.179.061-.187.2s-.016.268-.037.4a.37.37,0,0,1-.42.355c-.26,0-.418-.118-.435-.367-.028-.4-.029-.806-.04-1.209a.126.126,0,0,1,.13-.138c.042,0,.085-.008.127-.008l1.254,0c.092,0,.184,0,.276,0,.16-.01.192-.046.2-.212,0-.078,0-.156,0-.234,0-.4.021-.8-.018-1.189a1.22,1.22,0,0,0-.815-1.117,1.72,1.72,0,0,0-1.227-.009,1.365,1.365,0,0,0-.941,1.084,3.105,3.105,0,0,0-.04.464c-.006.354,0,.709,0,1.063m-5.4,2.177c.032.044.053.06.055.078.008.056.01.112.014.169.012.188.044.224.228.228s.34,0,.51,0c.252,0,.279-.029.279-.283,0-.85,0-1.7,0-2.551,0-.723,0-1.446.005-2.168,0-.157-.028-.2-.176-.2-.227-.007-.454-.008-.68,0-.137,0-.171.046-.172.187,0,.4,0,.808,0,1.212,0,.787.008,1.573.006,2.36a.4.4,0,0,1-.073.255,1.712,1.712,0,0,1-.4.307.273.273,0,0,1-.413-.213.879.879,0,0,1-.018-.169q0-.839,0-1.679c0-.687,0-1.375,0-2.062,0-.16-.037-.2-.2-.2q-.3-.007-.595,0c-.221.005-.241.03-.241.249,0,1.226,0,2.452.007,3.678a6.7,6.7,0,0,0,.033.721.7.7,0,0,0,.924.615,1.708,1.708,0,0,0,.77-.429,1.094,1.094,0,0,1,.144-.1m-3.525-2.569H4.057q0-.659,0-1.318c0-.5,0-.992,0-1.488,0-.179.035-.209.21-.22.049,0,.1,0,.149,0,.22,0,.439,0,.659,0,.164,0,.2-.039.2-.2,0-.205,0-.411,0-.617,0-.143-.041-.183-.168-.2a.95.95,0,0,0-.127,0l-1.955.007c-.368,0-.737,0-1.105,0-.2,0-.232.043-.234.243s0,.369,0,.553.022.21.206.214c.248.005.5,0,.744.006.221.006.245.025.254.245.011.276.008.553.008.829q0,1.658.008,3.316c0,.482,0,.964,0,1.446,0,.2.033.232.217.236.248.005.5,0,.744,0,.138,0,.179-.044.191-.175s.015-.24.015-.361q0-1.254,0-2.508" transform="translate(-0.001 -103.31)"/>
    <path id="Path_1165" data-name="Path 1165" class="cls-1" d="M29.128,3.08a.869.869,0,0,0,.078-.158c.1-.383.2-.767.293-1.151.124-.493.252-.985.372-1.479C29.934.03,29.963,0,30.224,0c.283,0,.567,0,.85.006.163,0,.2.063.158.218-.025.088-.063.173-.093.26-.165.482-.333.963-.495,1.446-.168.5-.33,1.008-.5,1.512-.06.182-.118.364-.187.542a3.217,3.217,0,0,0-.2,1.268c.018.793,0,1.587,0,2.381,0,.189-.052.243-.239.246-.276,0-.552,0-.829,0-.2,0-.237-.033-.243-.233-.009-.326-.01-.652-.01-.978,0-.51,0-1.021.009-1.53a2.078,2.078,0,0,0-.127-.725c-.178-.522-.341-1.05-.517-1.573s-.352-1.015-.524-1.524c-.123-.362-.24-.726-.356-1.09-.049-.154-.008-.21.157-.212.3,0,.609,0,.914,0a.208.208,0,0,1,.234.168c.1.355.2.71.294,1.064.057.2.114.409.169.614.091.342.177.685.27,1.027a1.339,1.339,0,0,0,.091.2l.068,0" transform="translate(-24.525 0)"/>
    <path id="Path_1166" data-name="Path 1166" class="cls-1" d="M77.357,24.48c0-.467,0-.935,0-1.4a1.634,1.634,0,0,1,.169-.78,1.38,1.38,0,0,1,.888-.706,2.11,2.11,0,0,1,1.376.026A1.437,1.437,0,0,1,80.742,23c.019.976.01,1.953.015,2.929a1.843,1.843,0,0,1-.225.938,1.344,1.344,0,0,1-.758.618,2.181,2.181,0,0,1-1.339.024,1.478,1.478,0,0,1-.925-.818,1.91,1.91,0,0,1-.149-.806c-.007-.467,0-.935,0-1.4h0m1.205.026h0c0,.516,0,1.033,0,1.549,0,.454.279.559.622.5a.456.456,0,0,0,.386-.463q0-1.538,0-3.077a.4.4,0,0,0-.359-.467.476.476,0,0,0-.649.489q0,.732,0,1.464" transform="translate(-70.5 -19.585)"/>
    <path id="Path_1167" data-name="Path 1167" class="cls-1" d="M128.435,28.285a1.217,1.217,0,0,0-.182.115,1.837,1.837,0,0,1-1.035.5.754.754,0,0,1-.862-.716,7.3,7.3,0,0,1-.038-1c0-1.269,0-2.537,0-3.806,0-.376,0-.377.38-.376.184,0,.369,0,.553,0,.2,0,.251.054.252.253q0,2.02.005,4.039a2.329,2.329,0,0,0,.014.3.262.262,0,0,0,.368.236,1.184,1.184,0,0,0,.537-.367.328.328,0,0,0,.064-.194c0-.822,0-1.644,0-2.466q0-.776,0-1.552c0-.206.04-.246.251-.248s.454,0,.68,0c.194,0,.235.046.236.242,0,.624,0,1.247,0,1.871q0,1.318,0,2.636c0,.269,0,.539,0,.808,0,.211-.042.252-.247.257-.227.005-.454.006-.68,0-.191,0-.232-.05-.238-.245,0-.083,0-.166,0-.249l-.057-.038" transform="translate(-115.12 -20.958)"/>
    <path id="Path_1172" data-name="Path 1172" class="cls-1" d="M118.6,170.813c0-.46.015-.92,0-1.38a.426.426,0,0,1,.594-.417.322.322,0,0,1,.238.273,3.01,3.01,0,0,1,.035.443q.005,1.21,0,2.419a1.836,1.836,0,0,1-.029.316.242.242,0,0,1-.074.146.51.51,0,0,1-.523.025.352.352,0,0,1-.238-.362c0-.488,0-.976,0-1.464h0" transform="translate(-108.083 -154.013)"/>
    <path id="Path_1173" data-name="Path 1173" class="cls-1" d="M159.141,170.271c-.085,0-.17,0-.255,0-.118-.008-.178-.058-.178-.169a5.921,5.921,0,0,1,.023-.634.346.346,0,0,1,.332-.351c.27-.033.4.035.5.255a1.629,1.629,0,0,1,.068.733c0,.112-.093.154-.192.161s-.2,0-.3,0v0" transform="translate(-144.641 -154.119)"/>
  </g>
</svg>
