<svg xmlns="http://www.w3.org/2000/svg" xmlns:xlink="http://www.w3.org/1999/xlink" width="2275" height="157" viewBox="0 0 2275 157">
  <defs>
    <clipPath id="clip-path">
      <rect id="Rectangle_4127" data-name="Rectangle 4127" width="2275" height="157" transform="translate(0 479)" fill="#3c2499"/>
    </clipPath>
    <clipPath id="clip-path-2">
      <rect id="Rectangle_353" data-name="Rectangle 353" width="2884.294" height="201.119" fill="#3c2499"/>
    </clipPath>
  </defs>
  <g id="Mask_Group_36" data-name="Mask Group 36" transform="translate(0 -479)" clip-path="url(#clip-path)">
    <g id="Group_9015" data-name="Group 9015" transform="translate(-508.812 434.937)">
      <g id="Group_8951" data-name="Group 8951" clip-path="url(#clip-path-2)">
        <path id="Path_23167" data-name="Path 23167" d="M2888.457,138.956v74.085H4.162L-10,40A91,91,0,0,1,11.8,65.063c12.509-5.6,28.43-8.857,45.6-9.868,48.486-2.857,108.968,13.192,118.41,37.414,4.315,11.059-6.735,8.22,21.213,6.573,51.613-3.038,98.49,5.994,139.413,19.157a604.652,604.652,0,0,1,65.459,25.718c22.386-11.632,54.77-18.222,89.394-20.261,58.679-3.453,112.321,8.606,165.738,17.784q11.614,2,23.273,3.932c56.213,9.342,127.205-10.44,184.561-3.143,3.834.491,7.652.97,11.486,1.449q6.134.754,12.268,1.513,6.54.8,13.095,1.583c4.661.561,9.336,1.11,14,1.653q7.464.876,14.944,1.723c2.571.292,5.157.584,7.728.87q8.254.929,16.508,1.823a.046.046,0,0,0,.03,0c3.022.333,6.059.654,9.081.982q9.133.981,18.267,1.922l9.442.964,10.449,1.052q10.419,1.034,20.868,2.033,8.367.806,16.733,1.572t16.748,1.519q4.194.377,8.389.742,12.584,1.1,25.2,2.15,4.037.342,8.073.666c2.917.24,5.848.473,8.765.707l5.939.473c2.09.164,4.179.333,6.284.491q13.486,1.052,26.986,2.039,8.615.631,17.229,1.233,4.42.315,8.87.613c2.586.181,5.187.356,7.788.526,1.007.07,2.015.14,3.022.2,2.827.193,5.668.38,8.494.561q17,1.113,34.037,2.127c198.663,11.842,579.15,2.2,679.88,6.315,61.385-1.747,123.492-1.367,185.433-3.879,17.139-.7,63.2-7.764,79.058-7.764,0,0,8.233,7.764,62.868,7.764,37.195,0,78.762-3.108,114.393-4.528-8.314-2.588-18.312-1.94-26.625-3.237,45.6-10.037,98.129-15.675,148.734-15.675,15.711,0,16.673-.14,16.673,1.9,0,7.133-30.625,9.9,38.773,9.9,24.957,0,149.681-5.217,149.681-15.6Z" transform="translate(-4.162 -11.923)" fill="#3c2499"/>
      </g>
    </g>
  </g>
</svg>
