<svg xmlns="http://www.w3.org/2000/svg" xmlns:xlink="http://www.w3.org/1999/xlink" width="750" height="157" viewBox="0 0 750 157">
  <defs>
    <clipPath id="clip-path">
      <rect id="Rectangle_4127" data-name="Rectangle 4127" width="750" height="157" transform="translate(0 479)" fill="#3c2499"/>
    </clipPath>
    <clipPath id="clip-path-2">
      <rect id="Rectangle_353" data-name="Rectangle 353" width="951.014" height="201.119" fill="#3c2499"/>
    </clipPath>
  </defs>
  <g id="Mask_Group_36" data-name="Mask Group 36" transform="translate(0 -479)" clip-path="url(#clip-path)">
    <g id="Group_9015" data-name="Group 9015" transform="translate(-167.766 434.937)">
      <g id="Group_8951" data-name="Group 8951" clip-path="url(#clip-path-2)">
        <path id="Path_23167" data-name="Path 23167" d="M945.684,138.956v74.085H-5.33L-10,40A132.628,132.628,0,0,1-2.812,65.063c4.124-5.6,9.374-8.857,15.035-9.868,15.987-2.857,35.929,13.192,39.042,37.414,1.423,11.059-2.221,8.22,6.995,6.573,17.018-3.038,32.474,5.994,45.967,19.157a199.98,199.98,0,0,1,21.583,25.718c7.381-11.632,18.059-18.222,29.475-20.261,19.348-3.453,37.035,8.606,54.647,17.784q3.829,2,7.674,3.932c18.535,9.342,41.942-10.44,60.854-3.143,1.264.491,2.523.97,3.787,1.449,1.348.5,2.7,1.011,4.045,1.513,1.438.532,2.875,1.063,4.318,1.583q2.305.841,4.615,1.653,2.461.876,4.927,1.723c.848.292,1.7.584,2.548.87q2.721.929,5.443,1.823a.006.006,0,0,0,.01,0c1,.333,2,.654,2.994.982q3.011.981,6.023,1.922l3.113.964,3.445,1.052q3.435,1.034,6.88,2.033,2.759.806,5.517,1.572t5.522,1.519q1.383.377,2.766.742,4.149,1.1,8.308,2.15,1.331.342,2.662.666c.962.24,1.928.473,2.89.707l1.958.473c.689.164,1.378.333,2.072.491q4.446,1.052,8.9,2.039,2.841.631,5.681,1.233,1.457.315,2.925.613c.853.181,1.71.356,2.568.526.332.07.664.14,1,.2.932.193,1.869.38,2.8.561q5.607,1.113,11.223,2.127c65.5,11.842,190.958,2.2,224.171,6.315,20.24-1.747,40.718-1.367,61.141-3.879,5.651-.7,20.838-7.764,26.067-7.764,0,0,2.715,7.764,20.729,7.764,12.264,0,25.97-3.108,37.718-4.528-2.741-2.588-6.038-1.94-8.779-3.237,15.035-10.037,32.355-15.675,49.041-15.675,5.18,0,5.5-.14,5.5,1.9,0,7.133-10.1,9.9,12.784,9.9,8.229,0,49.353-5.217,49.353-15.6Z" transform="translate(5.33 -11.923)" fill="#3c2499"/>
      </g>
    </g>
  </g>
</svg>
