<svg xmlns="http://www.w3.org/2000/svg" xmlns:xlink="http://www.w3.org/1999/xlink" width="256" height="91" viewBox="0 0 256 91">
  <defs>
    <style>
      .cls-1 {
        fill: url(#linear-gradient);
      }

      .cls-2 {
        opacity: 0.46;
        fill: url(#linear-gradient-2);
      }

      .cls-3 {
        filter: url(#Path_23204);
      }
    </style>
    <linearGradient id="linear-gradient" x1="-0.016" y1="1.851" x2="0.677" y2="-0.048" gradientUnits="objectBoundingBox">
      <stop offset="0" stop-color="#01bdfc"/>
      <stop offset="1" stop-color="#1886f5"/>
    </linearGradient>
    <filter id="Path_23204" x="0" y="0" width="256" height="91" filterUnits="userSpaceOnUse">
      <feOffset dy="6" input="SourceAlpha"/>
      <feGaussianBlur stdDeviation="6" result="blur"/>
      <feFlood flood-color="#0075e9" flood-opacity="0.651"/>
      <feComposite operator="in" in2="blur"/>
      <feComposite in="SourceGraphic"/>
    </filter>
    <linearGradient id="linear-gradient-2" x1="0.983" y1="0.251" x2="0.436" y2="1.729" xlink:href="#linear-gradient"/>
  </defs>
  <g id="Group_9158" data-name="Group 9158" transform="translate(-5437 -3826)">
    <g class="cls-3" transform="matrix(1, 0, 0, 1, 5437, 3826)">
      <path id="Path_23204-2" data-name="Path 23204" class="cls-1" d="M27.5,0h165a27.5,27.5,0,0,1,0,55H27.5a27.5,27.5,0,0,1,0-55Z" transform="translate(18 12)"/>
    </g>
    <path id="Subtraction_2" data-name="Subtraction 2" class="cls-2" d="M-107.5,116h-165a27.327,27.327,0,0,1-10.7-2.161,27.409,27.409,0,0,1-8.741-5.893,27.409,27.409,0,0,1-5.893-8.741A27.33,27.33,0,0,1-300,88.5a27.489,27.489,0,0,1,3.679-13.75,27.673,27.673,0,0,1,9.683-9.842A27.531,27.531,0,0,0-293,82.5,27.531,27.531,0,0,0-265.5,110h165a27.461,27.461,0,0,0,14.138-3.907A27.441,27.441,0,0,1-107.5,116Z" transform="translate(5755 3777)"/>
  </g>
</svg>
