<svg id="Group_9015" data-name="Group 9015" xmlns="http://www.w3.org/2000/svg" xmlns:xlink="http://www.w3.org/1999/xlink" width="1920" height="201.119" viewBox="0 0 1920 201.119">
  <defs>
    <style>
      .cls-1 {
        fill: #3d1574;
      }

      .cls-2 {
        clip-path: url(#clip-path);
      }
    </style>
    <clipPath id="clip-path">
      <rect id="Rectangle_353" data-name="Rectangle 353" class="cls-1" width="1920" height="201.119"/>
    </clipPath>
  </defs>
  <g id="Group_8951" data-name="Group 8951" class="cls-2">
    <path id="Path_23167" data-name="Path 23167" class="cls-1" d="M1919.427,138.956v74.085H-.572L-10,40A90.5,90.5,0,0,1,4.511,65.063c8.327-5.6,18.925-8.857,30.354-9.868,32.276-2.857,72.537,13.192,78.822,37.414,2.872,11.059-4.484,8.22,14.121,6.573,34.357-3.038,65.562,5.994,92.8,19.157a338.652,338.652,0,0,1,43.574,25.718c14.9-11.632,36.459-18.222,59.507-20.261,39.061-3.453,74.769,8.606,110.327,17.784q7.731,2,15.492,3.932c37.42,9.342,84.677-10.44,122.857-3.143,2.552.491,5.094.97,7.646,1.449q4.083.754,8.166,1.513,4.354.8,8.717,1.583c3.1.561,6.215,1.11,9.317,1.653q4.969.876,9.948,1.723c1.711.292,3.433.584,5.144.87q5.494.929,10.989,1.823a.021.021,0,0,0,.02,0c2.012.333,4.033.654,6.045.982q6.08.981,12.16,1.922l6.285.964,6.956,1.052q6.935,1.034,13.891,2.033,5.569.806,11.139,1.572t11.149,1.519q2.792.377,5.584.742,8.377,1.1,16.773,2.15,2.687.342,5.374.666c1.942.24,3.893.473,5.835.707l3.953.473c1.391.164,2.782.333,4.183.491q8.977,1.052,17.964,2.039,5.735.631,11.469,1.233,2.942.315,5.9.613c1.721.181,3.453.356,5.184.526.671.07,1.341.14,2.012.2,1.881.193,3.773.38,5.655.561q11.319,1.113,22.658,2.127c132.245,11.842,385.525,2.2,452.578,6.315,40.862-1.747,82.205-1.367,123.438-3.879,11.409-.7,42.069-7.764,52.627-7.764,0,0,5.481,7.764,41.849,7.764,24.76,0,52.43-3.108,76.149-4.528-5.534-2.588-12.19-1.94-17.724-3.237a322.9,322.9,0,0,1,99.008-15.675c10.458,0,11.1-.14,11.1,1.9,0,7.133-20.386,9.9,25.81,9.9,16.613,0,99.639-5.217,99.639-15.6Z" transform="translate(0.572 -11.923)"/>
  </g>
</svg>
