<svg xmlns="http://www.w3.org/2000/svg" xmlns:xlink="http://www.w3.org/1999/xlink" width="91" height="91" viewBox="0 0 91 91">
  <defs>
    <style>
      .cls-1 {
        fill: #1b9df0;
      }

      .cls-2 {
        fill: #fff;
      }

      .cls-3 {
        filter: url(#Path_23206);
      }
    </style>
    <filter id="Path_23206" x="0" y="0" width="91" height="91" filterUnits="userSpaceOnUse">
      <feOffset dy="6" input="SourceAlpha"/>
      <feGaussianBlur stdDeviation="6" result="blur"/>
      <feFlood flood-color="#7c33a5"/>
      <feComposite operator="in" in2="blur"/>
      <feComposite in="SourceGraphic"/>
    </filter>
  </defs>
  <g id="Group_9151" data-name="Group 9151" transform="translate(-1108 -4534)">
    <g class="cls-3" transform="matrix(1, 0, 0, 1, 1108, 4534)">
      <path id="Path_23206-2" data-name="Path 23206" class="cls-1" d="M27.5,0A27.5,27.5,0,1,1,0,27.5,27.5,27.5,0,0,1,27.5,0" transform="translate(18 12)"/>
    </g>
    <path id="Path_23207" data-name="Path 23207" class="cls-2" d="M99.834,140.762c12.2,0,18.865-10.106,18.865-18.865,0-.289,0-.577-.014-.853A13.583,13.583,0,0,0,122,117.607a13.457,13.457,0,0,1-3.809,1.045,6.626,6.626,0,0,0,2.915-3.671,13.426,13.426,0,0,1-4.207,1.609,6.634,6.634,0,0,0-11.467,4.538,6.076,6.076,0,0,0,.179,1.512,18.809,18.809,0,0,1-13.667-6.93A6.627,6.627,0,0,0,94,124.551a6.513,6.513,0,0,1-3-.825v.082a6.637,6.637,0,0,0,5.321,6.5,6.61,6.61,0,0,1-1.746.234,6.33,6.33,0,0,1-1.251-.124,6.62,6.62,0,0,0,6.188,4.606,13.328,13.328,0,0,1-8.236,2.833,12.056,12.056,0,0,1-1.581-.1,18.473,18.473,0,0,0,10.134,3" transform="translate(1048.634 4447.244)"/>
  </g>
</svg>
