<svg xmlns="http://www.w3.org/2000/svg" xmlns:xlink="http://www.w3.org/1999/xlink" width="91" height="91" viewBox="0 0 91 91">
  <defs>
    <style>
      .cls-1 {
        fill: #fff;
      }

      .cls-2 {
        fill: red;
      }

      .cls-3 {
        filter: url(#Path_23208);
      }
    </style>
    <filter id="Path_23208" x="0" y="0" width="91" height="91" filterUnits="userSpaceOnUse">
      <feOffset dy="6" input="SourceAlpha"/>
      <feGaussianBlur stdDeviation="6" result="blur"/>
      <feFlood flood-color="#7c33a5"/>
      <feComposite operator="in" in2="blur"/>
      <feComposite in="SourceGraphic"/>
    </filter>
  </defs>
  <g id="Group_9063" data-name="Group 9063" transform="translate(-1034 -4534)">
    <g class="cls-3" transform="matrix(1, 0, 0, 1, 1034, 4534)">
      <path id="Path_23208-2" data-name="Path 23208" class="cls-1" d="M27.5,0A27.5,27.5,0,1,1,0,27.5,27.5,27.5,0,0,1,27.5,0Z" transform="translate(18 12)"/>
    </g>
    <g id="Group_9061" data-name="Group 9061" transform="translate(-1513 467.317)">
      <path id="Path_1164" data-name="Path 1164" class="cls-2" d="M14.582,133.167c-1.487-.053-2.847-.09-4.206-.153q-1.825-.085-3.649-.218c-.778-.056-1.56-.11-2.328-.239a23.9,23.9,0,0,1-2.447-.565,1.391,1.391,0,0,1-.812-.7,6.48,6.48,0,0,1-.625-1.875A21.337,21.337,0,0,1,.074,125.4c-.015-.863-.08-1.727-.072-2.589a34.007,34.007,0,0,1,.233-4.179,15.857,15.857,0,0,1,.6-2.878A2.031,2.031,0,0,1,2.5,114.3c.894-.167,1.784-.366,2.685-.485.8-.105,1.6-.123,2.4-.174,1.074-.068,2.148-.151,3.223-.191,1.359-.051,2.72-.088,4.08-.088q2.076,0,4.151.091c1.465.063,2.927.192,4.391.262a22.468,22.468,0,0,1,3.783.574,1.971,1.971,0,0,1,1.473,1.25,12.187,12.187,0,0,1,.661,2.825,25.507,25.507,0,0,1,.282,3.251,37.156,37.156,0,0,1-.077,4.4c-.05.554-.081,1.111-.163,1.66-.121.806-.248,1.613-.434,2.405a5.6,5.6,0,0,1-.514,1.278,1.367,1.367,0,0,1-.877.673,17.628,17.628,0,0,1-2.81.577c-1.587.183-3.177.322-4.772.391-1.843.079-3.688.12-5.406.173m3.059-12.29a2.486,2.486,0,0,1-.076-.4c0-.958,0-1.916,0-2.874,0-.323-.1-.427-.418-.421-.224,0-.449.013-.673.013-.674,0-.678.008-.676.667q.012,3.939.017,7.878c0,.97,0,1.94,0,2.91,0,.325.076.4.4.4.284,0,.568,0,.851-.008.406-.009.406-.012.554-.393.007-.019.035-.029.075-.061.12.076.247.159.376.239a1.911,1.911,0,0,0,1.7.224,1.347,1.347,0,0,0,.765-.644,2.654,2.654,0,0,0,.276-1.338c0-1.549.007-3.1-.007-4.648a3.78,3.78,0,0,0-.134-1.015,1.454,1.454,0,0,0-.7-.979,1.854,1.854,0,0,0-2.057.256l-.274.2m4.072,3.737h0c0,.71-.025,1.421.007,2.13a2.67,2.67,0,0,0,.642,1.8,2.217,2.217,0,0,0,1.385.716,6.323,6.323,0,0,0,.922,0,2.184,2.184,0,0,0,.942-.287,1.989,1.989,0,0,0,.96-1.088,4.224,4.224,0,0,0,.231-1.463c.006-.2-.063-.275-.283-.283-.389-.014-.78-.014-1.169.005-.241.012-.3.1-.312.34s-.026.448-.061.669a.617.617,0,0,1-.7.593c-.434,0-.7-.2-.727-.612-.046-.671-.049-1.345-.066-2.019a.21.21,0,0,1,.216-.231c.071-.007.142-.013.212-.013l2.094,0c.154,0,.308.006.461,0,.267-.016.321-.078.328-.353,0-.13,0-.26,0-.39-.006-.662.035-1.33-.03-1.986A2.037,2.037,0,0,0,25.4,120.27a2.872,2.872,0,0,0-2.049-.015,2.279,2.279,0,0,0-1.571,1.81,5.185,5.185,0,0,0-.067.775c-.01.592,0,1.183,0,1.775M12.7,128.249c.054.074.088.1.092.13.014.093.017.188.023.282.02.315.074.374.38.381.284.007.568.006.852,0,.421,0,.467-.048.467-.472,0-1.42-.005-2.84-.005-4.26,0-1.207.005-2.414.009-3.621,0-.263-.046-.331-.293-.338-.378-.011-.757-.013-1.136,0-.228.007-.286.077-.287.312,0,.674,0,1.349,0,2.023,0,1.313.014,2.627.01,3.94a.66.66,0,0,1-.121.427,2.859,2.859,0,0,1-.671.513.455.455,0,0,1-.69-.356,1.468,1.468,0,0,1-.03-.282q0-1.4,0-2.8c0-1.148,0-2.3,0-3.443,0-.268-.061-.326-.341-.333q-.5-.012-.993,0c-.37.008-.4.05-.4.415,0,2.047,0,4.094.011,6.142a11.186,11.186,0,0,0,.056,1.2,1.177,1.177,0,0,0,1.543,1.027,2.853,2.853,0,0,0,1.286-.716,1.828,1.828,0,0,1,.241-.171M6.81,123.96H6.774q0-1.1,0-2.2c0-.828,0-1.657,0-2.485,0-.3.058-.349.351-.367.083-.005.166-.005.249-.005.367,0,.734.007,1.1,0,.275-.005.332-.065.337-.339.007-.343.008-.687,0-1.03-.005-.239-.069-.305-.28-.332a1.586,1.586,0,0,0-.213-.008l-3.265.011c-.615,0-1.231-.005-1.846.006-.336.006-.387.072-.391.405,0,.308,0,.616,0,.923s.036.351.345.357c.414.009.828,0,1.242.01.369.009.409.042.423.41.018.461.013.923.014,1.385q.008,2.769.013,5.538c0,.8,0,1.61.005,2.414,0,.326.055.387.362.394.414.009.828.006,1.242,0,.23-.005.3-.073.319-.293.018-.2.025-.4.026-.6q0-2.093,0-4.187" transform="translate(2578 3991.104)"/>
      <path id="Path_1165" data-name="Path 1165" d="M30.613,5.143a1.45,1.45,0,0,0,.13-.265c.168-.64.328-1.281.49-1.922.208-.823.42-1.645.621-2.47.106-.436.155-.487.59-.486.473,0,.947,0,1.42.011.271.007.337.1.264.363-.041.148-.1.289-.155.434-.276.8-.556,1.607-.826,2.414-.281.84-.551,1.683-.829,2.524-.1.3-.2.608-.313.9a5.372,5.372,0,0,0-.326,2.118c.031,1.324.007,2.65,0,3.976,0,.315-.087.406-.4.411-.461.007-.922,0-1.384-.006-.337,0-.4-.055-.405-.389-.015-.544-.017-1.089-.017-1.633,0-.852,0-1.7.016-2.556a3.471,3.471,0,0,0-.213-1.211c-.3-.872-.57-1.753-.863-2.626-.286-.851-.588-1.7-.876-2.545-.2-.6-.4-1.212-.6-1.82-.082-.258-.014-.35.262-.354.509-.008,1.017,0,1.526-.007a.348.348,0,0,1,.391.28c.161.593.328,1.185.492,1.777.095.342.191.683.281,1.026.151.571.3,1.144.451,1.714a2.236,2.236,0,0,0,.152.335l.114,0" transform="translate(2555.073 4087.684)"/>
      <path id="Path_1166" data-name="Path 1166" d="M77.358,26.483c0-.78,0-1.561,0-2.341a2.729,2.729,0,0,1,.282-1.3,2.3,2.3,0,0,1,1.483-1.179,3.524,3.524,0,0,1,2.3.044,2.4,2.4,0,0,1,1.591,2.3c.032,1.63.017,3.261.025,4.891a3.077,3.077,0,0,1-.376,1.567A2.245,2.245,0,0,1,81.394,31.5a3.642,3.642,0,0,1-2.235.04,2.468,2.468,0,0,1-1.545-1.366,3.19,3.19,0,0,1-.249-1.347c-.012-.78,0-1.561,0-2.341h0m2.013.044h0c0,.862,0,1.725,0,2.587,0,.759.467.933,1.039.842a.762.762,0,0,0,.645-.774q0-2.569,0-5.138a.666.666,0,0,0-.6-.78.8.8,0,0,0-1.084.817q0,1.222,0,2.445" transform="translate(2512.093 4069.374)"/>
      <path id="Path_1167" data-name="Path 1167" d="M129.855,31.827a2.032,2.032,0,0,0-.3.192,3.068,3.068,0,0,1-1.729.828,1.259,1.259,0,0,1-1.44-1.195,12.187,12.187,0,0,1-.063-1.665c-.005-2.118,0-4.237,0-6.355,0-.627,0-.629.635-.627.308,0,.615-.007.923,0,.341.006.42.09.42.422q0,3.373.009,6.745a3.889,3.889,0,0,0,.023.5.438.438,0,0,0,.614.394,1.977,1.977,0,0,0,.9-.613.547.547,0,0,0,.107-.324c0-1.373,0-2.746,0-4.119q0-1.3,0-2.592c0-.344.066-.41.42-.414q.568-.006,1.136.007c.324.007.393.077.394.4,0,1.041,0,2.083,0,3.124q0,2.2,0,4.4c0,.45,0,.9,0,1.349-.005.352-.07.421-.412.429-.379.009-.757.01-1.136,0-.318-.007-.387-.084-.4-.409,0-.139,0-.278,0-.416l-.095-.063" transform="translate(2470.38 4068.091)"/>
      <path id="Path_1172" data-name="Path 1172" class="cls-2" d="M118.6,172.032c0-.768.025-1.537-.008-2.3a.711.711,0,0,1,.992-.7.538.538,0,0,1,.4.456,5.028,5.028,0,0,1,.058.74q.009,2.02,0,4.04a3.067,3.067,0,0,1-.049.528.4.4,0,0,1-.124.243.852.852,0,0,1-.874.042.588.588,0,0,1-.4-.6c0-.815,0-1.63,0-2.445h0" transform="translate(2476.959 3943.704)"/>
      <path id="Path_1173" data-name="Path 1173" class="cls-2" d="M159.431,171.05c-.142,0-.284.008-.425,0-.2-.014-.3-.1-.3-.282a9.892,9.892,0,0,1,.039-1.059.578.578,0,0,1,.555-.586c.452-.056.675.058.833.425a2.72,2.72,0,0,1,.113,1.225c-.008.186-.156.258-.321.269s-.331,0-.5,0v.007" transform="translate(2442.783 3943.606)"/>
    </g>
  </g>
</svg>
